# Alias OBJ Model File
# Exported from SketchUp, (c) 2000-2012 Trimble Navigation Limited
# File units = inches

mtllib aarow.mtl

g Mesh1 Model

usemtl FrontColor
v 0.25 2 0.25
vt 0.25 -0.25
vn 0 1 -5.55112e-17
v 0.25 2 -0.25
vt 0.25 0.25
v -0.25 2 -0.25
vt -0.25 0.25
v -0.25 2 0.25
vt -0.25 -0.25
f 1/1/1 2/2/1 3/3/1 4/4/1 

v 0.25 1 0.25
vt -0.25 1
vn 1 0 -0
v 0.25 1 -0.25
vt 0.25 1
vt 0.25 2
vt -0.25 2
f 5/5/2 6/6/2 2/7/2 1/8/2 

v 0.5 1 0.5
vt 0.5 -0.5
f 5/1/1 7/9/1 6/2/1

v -0.25 1 0.25
f 8/4/1 7/9/1 5/1/1

v -0.5 1 0.5
vt -0.5 -0.5
f 8/4/1 9/10/1 7/9/1

v -0.5 1 -0.5
vt -0.5 0.5
f 9/10/1 8/4/1 10/11/1

v -0.25 1 -0.25
f 11/3/1 10/11/1 8/4/1

v 0.5 1 -0.5
vt 0.5 0.5
f 10/11/1 11/3/1 12/12/1

f 12/12/1 11/3/1 6/2/1

vn 0 -5.55112e-17 -1
f 2/8/3 6/5/3 11/6/3 3/7/3 

vn -1 0 -0
f 11/5/4 8/6/4 4/7/4 3/8/4 

vn 0 5.55112e-17 1
f 5/6/5 1/7/5 4/8/5 8/5/5 

f 12/12/1 6/2/1 7/9/1

v 0 0 -0
vt 0 0
vn 0.894427 -0.447214 1.38778e-17
vt 0.5 1.11803
vt -0.5 1.11803
f 13/13/6 12/14/6 7/15/6

vn 0 -0.447214 -0.894427
f 12/15/7 13/13/7 10/14/7

vn -0.894427 -0.447214 1.38778e-17
f 13/13/8 9/14/8 10/15/8

vn 0 -0.447214 0.894427
f 13/13/9 7/14/9 9/15/9

